<svg xmlns="http://www.w3.org/2000/svg" viewBox="0 0 500 500" fill="#D1A24F"><path d="M250 58c-83 0-155 53-181 131l-31-11c-8-3-15 5-11 12l47 84c3 5 10 7 15 3l79-55c7-5 5-15-3-18l-33-11c20-48 67-81 118-81 71 0 128 57 128 128 0 13 11 24 24 24s24-11 24-24C426 137 347 58 250 58z"/><path d="M473 314l-47-84c-3-5-10-7-15-3l-79 55c-7 5-5 15 3 18l33 11c-20 48-67 81-118 81-71 0-128-57-128-128 0-13-11-24-24-24s-24 11-24 24c0 97 79 176 176 176 83 0 155-53 181-131l31 11c8 3 15-5 11-12z"/><rect x="178" y="262" width="36" height="72" rx="8"/><rect x="232" y="222" width="36" height="112" rx="8"/><rect x="286" y="182" width="36" height="152" rx="8"/></svg>
